# xmcd
#
# Track frame offsets:
#	150
#	18417
#	31819
#	50913
#	69155
#	95860
#	115644
#	126296
#	143067
#	158702
#	183424
#	200766
#	215931
#	234448
#	246920
#	259757
#	272738
#	285040
#
# Disc length: 3934 seconds
#
# Revision: 1
# Processed by: cddbd v1.4PL0 Copyright (c) Steve Scherf et al.
# Submitted via: audiograbber 1.80
#
DISCID=0a0f5c12
DTITLE=VV.AA. - The Cream Of Soul
DYEAR=1900
DGENRE=
TTITLE0=Billy Griffin - Hold Me Tighter In The Rain
TTITLE1=Percy Sledge - When a Man Loves a Woman
TTITLE2=Odyssey - Inside Out
TTITLE3=Frances Nero - Footsteps Following Me
TTITLE4=Billy Paul - Me and Mr Jones
TTITLE5=The Supremes - Stoned Love
TTITLE6=Sam and Dave - Soul Sister Brown Sugar
TTITLE7=The Real Thing - You to Me Are Everything
TTITLE8=Tymes - People
TTITLE9=Rose Royce - Love Don't Live Here Anymore
TTITLE10=Brook Brenton - Rainy Night in Georgia
TTITLE11=Billy Ocean - Emotions in Motion
TTITLE12=Freda Payne - Band of gold
TTITLE13=The Foundations - Baby Now That 've Found You
TTITLE14=The Detroit Emeralds - You Want It You Got It
TTITLE15=Harold Melvin and The Bluenote - Don't Leave Me This Way
TTITLE16=The Theree Degrees  - When Will I See You Again
TTITLE17=Save The Last Dance For Me - The Difters
EXTD=#2002
EXTT0=
EXTT1=
EXTT2=
EXTT3=
EXTT4=
EXTT5=
EXTT6=
EXTT7=
EXTT8=
EXTT9=
EXTT10=
EXTT11=
EXTT12=
EXTT13=
EXTT14=
EXTT15=
EXTT16=
EXTT17=
PLAYORDER=
